<svg width="40" height="40" viewBox="0 0 40 40" fill="none" xmlns="http://www.w3.org/2000/svg">
<path d="M20.0424 7.53381C22.3402 7.53381 24.2018 5.84694 24.2018 3.76812C24.2018 1.68625 22.3402 0 20.0424 0C17.7433 0 15.8823 1.68625 15.8823 3.76812C15.8823 5.84686 17.7433 7.53381 20.0424 7.53381Z" fill="#F9995D"/>
<path d="M25.6274 9.90186L20.0425 14.959L14.4224 9.87061C13.1492 10.5875 12.1436 11.8948 12.1436 13.1298V25.7907C12.1436 26.7037 12.9603 27.4432 13.9686 27.4432C14.4637 27.4432 13.9686 27.4432 15.2418 27.4432L15.936 38.2412C15.936 39.2125 16.8055 39.9998 17.8789 39.9998C18.3306 39.9998 19.1662 39.9998 19.9999 39.9998C20.8342 39.9998 21.6685 39.9998 22.1216 39.9998C23.1942 39.9998 24.0631 39.2125 24.0631 38.2412L24.7578 27.4432C26.0311 27.4432 25.5346 27.4432 26.0311 27.4432C27.0387 27.4432 27.8554 26.7037 27.8554 25.7907V13.1297C27.8555 11.9119 26.8776 10.6248 25.6274 9.90186Z" fill="#F9995D"/>
<path d="M18.7988 12.9477L20.0401 14.0717L21.1914 13.0299V11.0015H18.7988V12.9477Z" fill="#F9995D"/>
<path d="M21.189 8.88965H18.7998V10.2761H21.189V8.88965Z" fill="#F9995D"/>
<path d="M33.1758 11.6471C35.1844 11.6471 36.8083 10.1741 36.8083 8.35722C36.8083 6.54035 35.1844 5.06738 33.1758 5.06738C31.1699 5.06738 29.5439 6.54027 29.5439 8.35722C29.5439 10.1742 31.1699 11.6471 33.1758 11.6471Z" fill="#F9995D"/>
<path d="M37.434 13.4204L33.1026 17.3418L30.2448 14.7541V25.7905C30.2448 26.8519 29.7599 27.8073 28.9839 28.4991V29.0344L29.59 38.4636C29.59 39.3117 30.3505 39.9997 31.2864 39.9997C31.6826 39.9997 32.4106 39.9997 33.1393 39.9997C33.8686 39.9997 34.5973 39.9997 34.992 39.9997C35.9293 39.9997 36.6884 39.3117 36.6884 38.4636L37.2946 29.0344C38.4066 29.0344 37.9738 29.0344 38.4066 29.0344C39.287 29.0344 40 28.3887 40 27.5903V16.5342C39.9999 15.2741 38.8033 13.9306 37.434 13.4204Z" fill="#F9995D"/>
<path d="M33.1045 16.4518L34.2423 15.4223V14.0879H32.0576V15.5038L33.1045 16.4518Z" fill="#F9995D"/>
<path d="M34.2438 12.5181H32.0571V13.4281H34.2438V12.5181Z" fill="#F9995D"/>
<path d="M6.82442 11.6471C8.83033 11.6471 10.4563 10.1741 10.4563 8.35722C10.4563 6.54035 8.83033 5.06738 6.82442 5.06738C4.81584 5.06738 3.19189 6.54027 3.19189 8.35722C3.19189 10.1742 4.81584 11.6471 6.82442 11.6471Z" fill="#F9995D"/>
<path d="M9.75516 14.7541L6.89733 17.3418L2.56594 13.4204C1.19669 13.9306 0 15.2741 0 16.5343V27.5904C0 28.3888 0.713098 29.0344 1.5934 29.0344C2.02609 29.0344 1.5934 29.0344 2.70537 29.0344L3.31157 38.4636C3.31157 39.3118 4.07065 39.9997 5.00791 39.9997C5.40272 39.9997 6.13143 39.9997 6.86075 39.9997C7.58947 39.9997 8.3174 39.9997 8.7136 39.9997C9.64956 39.9997 10.41 39.3118 10.41 38.4636L11.0161 29.0344V28.4991C10.2401 27.8074 9.75525 26.852 9.75525 25.7906V14.7541H9.75516Z" fill="#F9995D"/>
<path d="M6.89549 16.4518L7.94249 15.5038V14.0879H5.75781V15.4223L6.89549 16.4518Z" fill="#F9995D"/>
<path d="M7.94309 12.5181H5.75635V13.4281H7.94309V12.5181Z" fill="#F9995D"/>
</svg>
